<?xml version="1.0" standalone="no"?>
<!DOCTYPE svg PUBLIC "-//W3C//DTD SVG 20010904//EN"
 "http://www.w3.org/TR/2001/REC-SVG-20010904/DTD/svg10.dtd">
<svg version="1.0" xmlns="http://www.w3.org/2000/svg"
 width="480.000000pt" height="297.000000pt" viewBox="0 0 480.000000 297.000000"
 preserveAspectRatio="xMidYMid meet">

<g transform="translate(0.000000,297.000000) scale(0.100000,-0.100000)"
fill="#000000" stroke="none">
<path d="M352 2563 c-18 -33 -23 -79 -13 -106 6 -15 46 -63 89 -107 94 -95
118 -101 179 -46 21 18 55 49 76 67 50 44 67 77 67 133 0 41 -18 76 -39 76 -4
0 -25 -19 -46 -41 -59 -61 -114 -99 -133 -92 -9 3 -47 35 -84 70 -36 34 -71
63 -77 63 -6 0 -14 -8 -19 -17z"/>
<path d="M1295 2570 c-30 -12 -144 -119 -161 -151 -11 -22 -14 -75 -14 -247 0
-191 2 -221 16 -226 22 -8 41 4 104 68 72 74 87 74 173 -9 64 -61 89 -76 101
-57 2 4 6 97 8 207 l3 200 -27 56 c-32 64 -98 135 -145 155 -18 8 -34 14 -35
13 -2 0 -12 -4 -23 -9z"/>
<path d="M4145 2451 c-133 -60 -138 -229 -9 -292 164 -79 320 120 196 250 -34
35 -90 61 -132 61 -8 0 -33 -9 -55 -19z"/>
<path d="M347 2233 c-4 -3 -7 -33 -7 -67 l0 -60 88 -88 c61 -61 95 -88 112
-88 15 0 47 22 89 63 103 97 121 123 121 173 0 96 -29 98 -121 9 -37 -36 -74
-65 -83 -65 -9 0 -48 29 -86 65 -63 59 -96 76 -113 58z"/>
<path d="M3470 2050 c-94 -15 -174 -45 -249 -94 l-72 -46 22 -38 c44 -73 50
-79 75 -90 37 -17 49 -15 134 23 63 28 90 35 142 35 99 0 138 -41 138 -143 l0
-55 -77 -7 c-245 -21 -402 -94 -454 -210 -37 -80 -18 -205 40 -268 56 -62 170
-92 285 -76 62 8 173 58 202 90 26 28 39 23 59 -22 10 -22 26 -44 36 -50 10
-5 57 -9 104 -9 l87 0 -4 338 c-4 316 -6 341 -26 396 -38 102 -120 182 -218
212 -59 17 -160 24 -224 14z m188 -647 l-3 -77 -43 -30 c-36 -26 -55 -31 -115
-34 -94 -5 -122 14 -122 81 0 74 51 109 185 126 111 14 101 21 98 -66z"/>
<path d="M2039 2035 c-44 -16 -109 -56 -128 -79 -16 -19 -31 -12 -31 15 0 11
-11 31 -25 45 -24 23 -30 25 -122 22 l-98 -3 -3 -472 -2 -473 140 0 140 0 0
343 c0 381 -4 355 67 391 38 19 111 21 148 4 53 -24 55 -39 55 -403 l0 -335
139 0 140 0 3 333 c3 361 3 362 61 397 40 25 123 27 156 4 48 -34 51 -60 51
-409 l0 -325 140 0 140 0 0 333 c0 268 -3 344 -15 392 -39 148 -134 225 -291
233 -133 7 -237 -33 -305 -118 l-33 -41 -17 33 c-24 45 -87 103 -128 117 -45
15 -137 13 -182 -4z"/>
<path d="M4070 1565 l0 -476 138 3 137 3 0 470 0 470 -137 3 -138 3 0 -476z"/>
<path d="M344 1906 c-3 -8 -4 -120 -2 -248 5 -269 13 -304 100 -434 101 -150
269 -247 453 -261 247 -18 483 133 586 373 32 77 33 83 37 248 l4 169 -87 84
c-114 109 -116 109 -227 -4 l-85 -88 -5 -120 c-5 -134 -15 -163 -72 -213 -84
-73 -228 -46 -275 52 -19 38 -21 61 -21 237 0 195 -4 219 -36 219 -7 0 -19 -6
-26 -12 -8 -7 -41 -39 -75 -70 -44 -41 -66 -55 -80 -52 -11 3 -49 34 -84 70
-62 63 -94 78 -105 50z"/>
<path d="M960 670 c0 -131 18 -150 22 -22 l3 87 26 -69 c14 -39 30 -71 35 -73
5 -2 21 29 34 68 14 39 28 73 32 76 5 2 8 -37 8 -86 0 -54 4 -91 10 -91 6 0
10 44 10 111 0 96 -2 110 -16 107 -14 -3 -26 -28 -70 -148 -7 -20 -14 -7 -45
83 -35 102 -49 89 -49 -43z"/>
<path d="M1221 756 c-31 -33 -39 -102 -17 -144 58 -112 199 -26 166 100 -13
45 -43 68 -90 68 -26 0 -43 -7 -59 -24z m119 -26 c26 -48 3 -136 -37 -147 -56
-14 -96 40 -86 114 11 69 92 91 123 33z"/>
<path d="M1400 773 c0 -5 15 -54 33 -108 21 -63 39 -100 48 -100 9 0 26 37 46
100 36 110 37 115 23 115 -5 0 -21 -40 -36 -90 -15 -49 -30 -90 -34 -90 -4 0
-18 39 -32 87 -13 48 -30 89 -36 91 -7 2 -12 0 -12 -5z"/>
<path d="M1600 670 c0 -67 4 -110 10 -110 6 0 10 43 10 110 0 67 -4 110 -10
110 -6 0 -10 -43 -10 -110z"/>
<path d="M1690 670 c0 -134 18 -149 22 -18 l3 93 51 -89 c28 -50 56 -92 62
-94 9 -3 12 27 12 107 0 132 -18 151 -22 24 l-3 -88 -49 88 c-27 48 -56 87
-63 87 -10 0 -13 -26 -13 -110z"/>
<path d="M1926 749 c-20 -24 -26 -41 -26 -81 0 -41 5 -54 29 -79 31 -31 75
-38 112 -19 14 8 19 21 19 55 0 45 0 45 -36 45 -21 0 -33 -4 -29 -10 4 -6 14
-9 23 -8 13 2 17 -5 17 -32 0 -33 -2 -35 -36 -38 -43 -4 -67 19 -76 72 -11 72
38 126 96 104 13 -4 26 -6 30 -3 10 11 -24 25 -61 25 -28 0 -42 -7 -62 -31z"/>
<path d="M2190 670 c0 -67 4 -110 10 -110 6 0 10 23 10 50 l0 50 39 0 c22 0
43 5 46 10 4 6 -12 10 -39 10 l-46 0 0 40 0 40 50 0 c28 0 50 5 50 10 0 6 -27
10 -60 10 l-60 0 0 -110z"/>
<path d="M2385 768 c-18 -47 -65 -193 -65 -200 0 -22 20 -4 28 25 8 30 12 32
54 35 44 3 46 2 53 -27 6 -29 21 -48 31 -39 2 3 -12 53 -32 111 -35 100 -56
130 -69 95z m49 -95 c7 -21 4 -23 -28 -23 -41 0 -41 0 -19 65 l16 49 12 -34
c7 -19 15 -45 19 -57z"/>
<path d="M2536 758 c-9 -12 -16 -27 -16 -33 0 -17 40 -50 77 -64 36 -15 51
-45 33 -66 -15 -18 -53 -19 -82 -4 -27 14 -38 1 -14 -17 26 -19 76 -18 104 2
17 12 22 24 20 47 -3 27 -11 36 -53 58 -34 17 -51 32 -53 47 -4 27 32 44 67
30 27 -10 42 -1 21 12 -29 19 -88 12 -104 -12z"/>
<path d="M2680 770 c0 -5 16 -10 35 -10 l35 0 0 -100 c0 -60 4 -100 10 -100 6
0 10 40 10 100 l0 100 35 0 c19 0 35 5 35 10 0 6 -33 10 -80 10 -47 0 -80 -4
-80 -10z"/>
<path d="M2914 772 c-17 -11 -22 -34 -13 -64 5 -20 3 -31 -12 -44 -38 -35 -13
-104 39 -104 12 0 32 5 45 11 18 8 30 8 47 -1 30 -16 39 -3 11 16 -20 14 -21
18 -8 37 20 32 28 57 17 57 -5 0 -17 -16 -26 -36 l-17 -35 -28 27 c-34 32 -35
41 -11 63 25 21 31 42 20 64 -9 17 -44 23 -64 9z m54 -23 c3 -17 -22 -49 -38
-49 -14 0 -20 31 -9 51 12 23 42 21 47 -2z m-15 -124 l28 -34 -25 -7 c-38 -9
-61 -1 -64 24 -3 22 13 53 27 51 3 0 19 -16 34 -34z"/>
<path d="M3107 766 c-12 -10 -17 -24 -15 -43 2 -22 14 -34 56 -56 41 -22 52
-34 52 -52 0 -36 -43 -45 -102 -20 -28 11 -21 -11 7 -23 60 -28 118 -1 113 51
-3 27 -11 36 -56 60 -42 23 -52 33 -50 50 4 25 44 39 71 25 23 -12 37 -1 17
12 -22 14 -72 11 -93 -4z"/>
<path d="M3315 768 c-18 -47 -65 -193 -65 -200 0 -22 20 -4 28 25 8 30 12 32
54 35 44 3 46 2 53 -27 6 -29 21 -48 31 -39 2 3 -12 52 -32 111 -23 70 -41
107 -50 107 -8 0 -17 -6 -19 -12z m23 -116 c-17 -2 -32 -1 -35 2 -3 2 3 29 13
58 l18 53 17 -55 17 -55 -30 -3z"/>
<path d="M3460 670 c0 -67 4 -110 10 -110 6 0 10 23 10 50 l0 50 45 0 c25 0
45 5 45 10 0 6 -20 10 -45 10 l-45 0 0 40 0 40 50 0 c28 0 50 5 50 10 0 6 -27
10 -60 10 l-60 0 0 -110z"/>
<path d="M3630 670 l0 -110 60 0 c33 0 60 4 60 10 0 6 -22 10 -50 10 l-50 0 0
45 0 45 40 0 c22 0 40 5 40 10 0 6 -18 10 -40 10 -39 0 -40 1 -40 35 l0 35 50
0 c28 0 50 5 50 10 0 6 -27 10 -60 10 l-60 0 0 -110z"/>
</g>
</svg>
